<svg width="31" height="45" viewBox="0 0 31 45" fill="none" xmlns="http://www.w3.org/2000/svg">
<path fill-rule="evenodd" clip-rule="evenodd" d="M13.104 1.69149L1.91298 21.6045H1.97674C0.669537 23.8855 0 26.4748 0 29.0949V30.0197C0 38.1883 6.85484 44.8156 15.3038 44.8156C23.7528 44.8156 30.6077 38.1883 30.6077 30.0197V29.0949C30.6077 26.4748 29.9381 23.9163 28.6309 21.6045L17.44 1.69149C16.9937 0.920869 16.1966 0.458496 15.272 0.458496C14.3473 0.458496 13.5184 0.920869 13.104 1.69149ZM20.8261 22.7212C21.1641 22.3944 21.7118 22.3944 22.0497 22.7212C22.3877 23.0479 22.3877 23.5773 22.0497 23.904L9.06968 36.4508C8.90069 36.6142 8.67923 36.6958 8.45788 36.6958C8.23649 36.6958 8.0151 36.6142 7.84608 36.4508C7.50803 36.1241 7.50803 35.5948 7.84608 35.268L20.8261 22.7212ZM13.287 25.2283C13.287 26.7483 12.0123 27.9805 10.4398 27.9805C8.86727 27.9805 7.59254 26.7483 7.59254 25.2283C7.59254 23.7083 8.86727 22.4762 10.4398 22.4762C12.0123 22.4762 13.287 23.7083 13.287 25.2283ZM19.4559 36.6958C21.0284 36.6958 22.3032 35.4637 22.3032 33.9436C22.3032 32.4237 21.0284 31.1914 19.4559 31.1914C17.8835 31.1914 16.6087 32.4237 16.6087 33.9436C16.6087 35.4637 17.8835 36.6958 19.4559 36.6958Z" fill="white" fill-opacity="0.6"/>
</svg>
