<svg width="11" height="13" viewBox="0 0 11 13" fill="none" xmlns="http://www.w3.org/2000/svg">
<path d="M5.5 13C2.73958 13 0.5 10.8164 0.5 8.125C0.5 5.80938 3.89062 1.46504 4.83854 0.29707C4.99479 0.106641 5.22656 0 5.47656 0H5.52344C5.77344 0 6.00521 0.106641 6.16146 0.29707C7.10937 1.46504 10.5 5.80938 10.5 8.125C10.5 10.8164 8.26042 13 5.5 13ZM3 8.53125C3 8.30781 2.8125 8.125 2.58333 8.125C2.35417 8.125 2.16667 8.30781 2.16667 8.53125C2.16667 10.1029 3.47135 11.375 5.08333 11.375C5.3125 11.375 5.5 11.1922 5.5 10.9688C5.5 10.7453 5.3125 10.5625 5.08333 10.5625C3.93229 10.5625 3 9.65352 3 8.53125Z" fill="#FAF9FA"/>
</svg>
